#!OML:ASF X:\für Bonn\!DataBase\2005_08_10_Bjorn_Final\c3d\bjorn.ASF
:FULLY-SPECIFIED
:DEGREES
110
root 9.53862 10.2114 1.04889 -231.399 81.1007 -224.789
lowerback 41.3273 -1.83247 5.56165
upperback 22.159 3.9307 0.380783
thorax 5.12054 4.25046 -3.44913
lowerneck -7.18716 -8.64741 2.91497
upperneck 8.34709 -12.1856 3.8152
head 4.08787 -5.71593 0.0641481
rclavicle 4.77083e-014 -3.02153e-014
rhumerus 25.2727 -9.61202 -66.1067
rradius 20.0877
rwrist 2.18768
rhand -19.8358 16.4511
rfingers 7.12502
rthumb 6.4983 -13.4292
lclavicle 4.77083e-014 -3.02153e-014
lhumerus 23.4543 -33.2451 56.6505
lradius 48.8888
lwrist -7.05327
lhand -25.3884 -12.9823
lfingers 7.12502
lthumb 1.13648 16.9944
rfemur -57.8489 -45.0591 -21.3321
rtibia 139.135
rfoot -23.5163 58.8494
rtoes -20.7756
lfemur -81.7436 23.7697 -27.6492
ltibia 131.511
lfoot -26.3669 -14.596
ltoes -14.8144
111
root 9.56299 10.0763 1.03122 -232.134 81.1282 -225.173
lowerback 41.6202 -1.94002 5.67003
upperback 22.1625 3.88135 0.428472
thorax 5.04553 4.24113 -3.44503
lowerneck -7.30124 -8.68073 3.13728
upperneck 8.53815 -12.2351 3.4934
head 4.13857 -5.73924 -0.0887454
rclavicle -4.13472e-014 -7.95139e-015
rhumerus 25.2358 -9.70151 -66.0743
rradius 20.102
rwrist 2.3242
rhand -20.6868 16.8444
rfingers 7.12502
rthumb 5.67671 -13.0595
lclavicle -4.13472e-014 -7.95139e-015
lhumerus 22.8571 -33.2514 56.7056
lradius 49.1779
lwrist -7.03322
lhand -25.6234 -13.1481
lfingers 7.12502
lthumb 0.909457 16.8297
rfemur -56.75 -47.4986 -24.0913
rtibia 140.073
rfoot -23.9633 60.8135
rtoes -20.782
lfemur -82.253 24.8408 -27.7343
ltibia 132.614
lfoot -26.3122 -15.2745
ltoes -14.3294
112
root 9.58695 9.94397 1.01463 -232.895 81.1769 -225.611
lowerback 41.8516 -2.02992 5.78045
upperback 22.1842 3.84965 0.479473
thorax 5.01036 4.24168 -3.4403
lowerneck -7.42649 -8.70818 3.32727
upperneck 8.71027 -12.2792 3.23249
head 4.19185 -5.75868 -0.21708
rclavicle 1.43125e-014 -9.54166e-015
rhumerus 25.2089 -9.81755 -66.0763
rradius 20.1089
rwrist 2.51549
rhand -21.6298 17.2481
rfingers 7.12502
rthumb 4.76626 -12.6783
lclavicle 1.43125e-014 -9.54166e-015
lhumerus 22.3019 -33.2884 56.7315
lradius 49.4458
lwrist -7.00908
lhand -25.8419 -13.2721
lfingers 7.12502
lthumb 0.698398 16.7065
rfemur -55.4436 -49.9584 -27.0864
rtibia 140.995
rfoot -24.797 62.734
rtoes -20.8697
lfemur -82.8079 26.0123 -27.8283
ltibia 133.709
lfoot -26.3649 -15.8481
ltoes -14.4799
113
root 9.60902 9.81564 0.997979 -233.492 81.2222 -225.899
lowerback 42.0599 -2.12579 5.87657
upperback 22.2092 3.80475 0.551847
thorax 4.98228 4.2318 -3.40068
lowerneck -7.49731 -8.7266 3.42567
upperneck 8.82734 -12.3026 3.03794
head 4.22617 -5.77078 -0.303989
rclavicle -8.26944e-014 -4.92986e-014
rhumerus 25.213 -10.0328 -66.1504
rradius 20.108
rwrist 3.03078
rhand -22.5853 17.6595
rfingers 7.12502
rthumb 3.84356 -12.2856
lclavicle -8.26944e-014 -4.92986e-014
lhumerus 21.7077 -33.3323 56.8356
lradius 49.6979
lwrist -6.98386
lhand -26.1002 -13.2665
lfingers 7.12502
lthumb 0.44894 16.7127
rfemur -53.9232 -52.3554 -30.2918
rtibia 141.879
rfoot -25.7363 64.5865
rtoes -20.8821
lfemur -83.3923 27.1785 -27.9187
ltibia 134.752
lfoot -26.3566 -16.4591
ltoes -14.6614
114
root 9.63192 9.69067 0.981594 -234.366 81.2422 -226.486
lowerback 42.2648 -2.1938 5.93758
upperback 22.1999 3.77183 0.601487
thorax 4.91636 4.22102 -3.37365
lowerneck -7.53508 -8.74237 3.5922
upperneck 8.99364 -12.325 2.80953
head 4.26452 -5.7797 -0.412315
rclavicle 2.70347e-014 -6.20208e-014
rhumerus 25.1717 -10.3499 -66.3101
rradius 20.0698
rwrist 3.7584
rhand -23.5923 18.1033
rfingers 7.12502
rthumb 2.87108 -11.8572
lclavicle 2.70347e-014 -6.20208e-014
lhumerus 21.0335 -33.4484 56.9974
lradius 49.9339
lwrist -6.78474
lhand -26.3388 -13.2705
lfingers 7.12502
lthumb 0.218544 16.7091
rfemur -52.1453 -54.6833 -33.8703
rtibia 142.741
rfoot -26.7006 66.453
rtoes -20.6702
lfemur -83.9517 28.4073 -28.0694
ltibia 135.756
lfoot -26.433 -17.0525
ltoes -14.9886
115
root 9.65333 9.57033 0.964632 -234.976 81.3143 -226.817
lowerback 42.4625 -2.2776 6.06296
upperback 22.1976 3.74409 0.658292
thorax 4.86518 4.21963 -3.3717
lowerneck -7.56321 -8.76509 3.74571
upperneck 9.10741 -12.3549 2.59839
head 4.28421 -5.79451 -0.51137
rclavicle -6.04305e-014 2.8625e-014
rhumerus 25.1303 -10.6833 -66.4971
rradius 20.0241
rwrist 4.49352
rhand -24.605 18.5776
rfingers 7.12502
rthumb 1.89302 -11.3938
lclavicle -6.04305e-014 2.8625e-014
lhumerus 20.3635 -33.5825 57.2133
lradius 50.1277
lwrist -6.39857
lhand -26.576 -13.2636
lfingers 7.12502
lthumb -0.0105468 16.7162
rfemur -50.1586 -56.8112 -37.5181
rtibia 143.553
rfoot -27.9958 68.1309
rtoes -20.537
lfemur -84.5613 29.73 -28.1582
ltibia 136.738
lfoot -26.4536 -17.7176
ltoes -15.253
